<svg width="228" height="339" viewBox="0 0 228 339" fill="none" xmlns="http://www.w3.org/2000/svg">
<g filter="url(#filter0_d_575_69)">
<g clip-path="url(#clip0_575_69)">
<path d="M135.124 60.5928C130.222 66.5439 121.656 78.723 124.812 84.1304C127.94 89.476 132.643 88.3902 132.643 88.3902C132.643 88.3902 125.217 98.5526 129.625 105.152C135.071 113.31 142.871 109.172 142.871 109.172C142.871 109.172 139.333 117.266 147.871 122.091C154.781 125.998 164.373 117.847 164.373 117.847C164.373 117.847 163.633 122.625 169.205 125.341C174.831 128.086 186.332 118.648 191.901 113.319C198.047 107.435 269.031 32.9382 269.031 32.9382L208.035 -23.6856C208.035 -23.6856 140.535 54.0272 135.124 60.5928Z" fill="#DEB180"/>
<path d="M158.879 89.9449C167.876 98.2955 182.536 99.1209 182.197 89.9901C181.859 80.8593 173.351 84.4236 168.095 79.5419C163.134 74.9158 165.13 67.5335 158.236 66.4219C151.341 65.3103 148.686 80.4803 158.879 89.9449Z" fill="#2D2B2C"/>
<path d="M171.676 120.209C174.31 122.261 177.356 120.192 179.53 117.254C181.704 114.315 181.823 111.115 179.981 109.737C178.138 108.359 174.466 109.576 171.973 112.549C169.479 115.522 169.534 118.544 171.676 120.209Z" fill="#2D2B2C"/>
<path d="M158.152 106.545C156.308 105.164 152.637 106.384 150.142 109.359C147.647 112.334 147.698 115.356 149.845 117.019C152.48 119.071 155.526 117.002 157.702 114.061C159.878 111.121 159.995 107.923 158.152 106.545Z" fill="#2D2B2C"/>
<path d="M143.416 92.8633C141.573 91.485 137.899 92.7044 135.408 95.6793C132.917 98.6541 132.963 101.676 135.111 103.339C137.744 105.389 140.792 103.323 142.966 100.384C145.14 97.4455 145.256 94.2439 143.416 92.8633Z" fill="#2D2B2C"/>
<path d="M131.32 74.8042C128.833 77.7872 128.876 80.8012 131.023 82.4641C133.656 84.5143 136.704 82.4477 138.88 79.5069C141.056 76.5662 141.171 73.3666 139.328 71.9883C137.485 70.6099 133.802 71.8171 131.32 74.8042Z" fill="#2D2B2C"/>
<g opacity="0.2">
<path opacity="0.2" d="M167.952 92.1093C173.917 94.2 178.534 92.7381 178.433 90.0173C178.332 87.2965 172.144 89.5797 168.808 87.6505C165.677 85.8356 161.244 82.215 159.79 83.2187C157.354 84.8974 161.512 89.851 167.952 92.1093Z" fill="white"/>
<path opacity="0.2" d="M173.354 118.363C174.407 119.45 176.1 118.091 177.166 117.086C178.05 116.255 179.2 114.935 178.485 114.058C177.77 113.18 176.386 114.391 175.387 114.993C174.388 115.596 172.496 117.473 173.354 118.363Z" fill="white"/>
<path opacity="0.2" d="M156.128 111.376C155.412 110.494 154.028 111.709 153.028 112.314C152.027 112.918 150.138 114.792 150.996 115.681C152.048 116.771 153.743 115.409 154.809 114.404C155.697 113.569 156.845 112.251 156.128 111.376Z" fill="white"/>
<path opacity="0.2" d="M136.351 101.744C137.402 102.834 139.097 101.472 140.163 100.467C141.046 99.6388 142.199 98.3189 141.48 97.4416C140.761 96.5642 139.383 97.7725 138.382 98.3771C137.381 98.9817 135.491 100.857 136.351 101.744Z" fill="white"/>
<path opacity="0.2" d="M131.983 80.3926C133.035 81.4824 134.73 80.1206 135.796 79.1159C136.678 78.2872 137.832 76.9674 137.115 76.0879C136.397 75.2083 135.016 76.4209 134.015 77.0255C133.014 77.6301 131.123 79.5055 131.983 80.3926Z" fill="white"/>
</g>
<path d="M212.397 -11.8794C209.712 -14.4039 206.864 -16.7492 203.871 -18.9C200.865 -15.4339 196.428 -10.3242 191.228 -4.33136C200.926 4.36111 213.783 12.7777 216.705 14.4743C229.17 21.7194 243.063 26.5085 253.746 36.4355C255.649 38.2096 257.755 40.2991 259.798 42.6128C262.909 39.3503 265.398 36.7379 267.006 35.0524C264.114 33.5014 261.202 31.8986 258.346 30.0762C246.329 22.4155 236.693 10.6929 226.253 0.981386L212.397 -11.8794Z" fill="#2D2B2C"/>
<path d="M176.342 12.8369C178.514 18.2662 183.701 22.1284 188.383 26.0899C203.924 39.3043 221.878 52.6563 235.116 68.4579C238.832 64.5733 242.478 60.754 245.941 57.1274C242.265 53.5495 239.357 50.3552 238.378 49.2649C224.571 34.1303 208.526 6.72126 186.561 1.0502C183.289 4.82292 179.846 8.79215 176.342 12.8369Z" fill="#2D2B2C"/>
<path d="M162.324 29.0136C157.685 34.3732 153.251 39.4975 149.342 44.0233C152.161 48.4277 155.415 52.5378 159.056 56.2918C168.148 65.6337 178.576 73.505 189.06 81.1648C195.796 86.0911 203.196 90.0539 210.403 94.2538C214.152 90.3555 218.236 86.0937 222.451 81.6954C207.569 69.7394 194.592 55.1077 180.027 42.7952C177.964 41.0372 170.195 34.3147 162.324 29.0136Z" fill="#2D2B2C"/>
</g>
<g clip-path="url(#clip1_575_69)">
<path d="M113.133 151.357C113.133 151.357 104.455 142.657 102.486 144.039C100.031 145.753 107.385 156.315 107.385 156.315L113.133 151.357Z" fill="#7A796E"/>
<path d="M89.3789 176.947C89.3789 176.947 77.9038 172.601 76.6681 174.679C75.134 177.254 86.1937 183.832 86.1937 183.832L89.3789 176.947Z" fill="#7A796E"/>
<path d="M118.053 250.932C118.053 250.932 110.358 260.49 108.243 259.334C105.618 257.889 111.827 246.609 111.827 246.609L118.053 250.932Z" fill="#7A796E"/>
<path d="M91.7387 228.001C91.7387 228.001 80.7882 233.538 79.337 231.601C77.5411 229.204 87.8417 221.491 87.8417 221.491L91.7387 228.001Z" fill="#7A796E"/>
<path d="M114.309 148.467C95.5357 154.639 104.05 171.804 104.05 171.804C104.05 171.804 85.6842 168.098 83.4703 181.94C81.6918 193.067 89.6861 200.676 92.2009 202.049C89.9994 203.466 82.1464 213.432 86.4399 224.266C91.7036 237.545 106.729 231.139 106.729 231.139C106.729 231.139 99.9522 249.072 119.239 253.348C134.719 256.789 135.795 234.119 142.628 232.91C149.461 231.702 239.503 237.114 239.503 237.114L235.584 152.733C235.584 152.733 146.532 167.016 139.612 166.49C132.692 165.963 129.385 143.515 114.309 148.467Z" fill="#FCF0E3"/>
<path d="M114.127 200.607C114.534 213.052 124.392 224.202 130.717 217.439C137.041 210.675 128.414 207.091 128.176 199.811C127.95 192.935 134.698 189.108 130.579 183.341C126.461 177.575 113.665 186.513 114.127 200.607Z" fill="#1A1A1A"/>
<path d="M115.441 238.445C113.479 241.854 114.042 244.858 116.473 246.15C119.459 247.737 122.135 245.157 123.798 241.837C125.46 238.516 125.023 235.306 122.95 234.246C120.877 233.185 117.406 235.022 115.441 238.445Z" fill="#1A1A1A"/>
<path d="M104.245 213.434C102.78 211.618 98.8655 211.89 95.6832 214.201C92.5009 216.512 91.7921 219.486 93.4847 221.655C95.5653 224.324 99.0699 223.066 101.93 220.712C104.79 218.357 105.707 215.25 104.245 213.434Z" fill="#1A1A1A"/>
<path d="M112.766 157.532C110.582 159.204 110.523 162.262 113.02 165.302C115.518 168.342 119.237 169.601 121.109 168.204C122.982 166.807 122.879 163.58 120.703 160.577C118.528 157.575 115.453 155.475 112.766 157.532Z" fill="#1A1A1A"/>
<path d="M91.7164 184.531C90.405 186.951 91.5882 189.767 95.1136 191.522C98.6389 193.276 102.538 192.899 103.682 190.866C104.827 188.832 103.412 185.918 100.205 184.075C96.9972 182.232 93.3335 181.56 91.7164 184.531Z" fill="#1A1A1A"/>
<path d="M147.972 226.59C150.288 226.649 152.607 226.702 154.921 226.798C156.698 226.874 158.735 226.835 160.432 227.325C161.367 227.595 162.425 226.936 162.643 226.208C162.915 225.347 162.243 224.681 161.308 224.412C159.414 223.874 157.128 223.915 155.141 223.824C152.722 223.712 150.295 223.662 147.874 223.6C145.517 223.542 145.63 226.532 147.973 226.599L147.972 226.59Z" fill="#2D2B2C"/>
<path d="M157.755 220.086C159.98 219.766 162.205 219.444 164.442 219.182C166.114 218.983 168.621 218.673 169.906 218.835C172.218 219.131 173.118 216.217 170.782 215.921C168.774 215.663 166.685 215.929 164.684 216.154C162.331 216.414 159.995 216.761 157.657 217.096C156.672 217.236 155.85 217.755 155.879 218.655C155.903 219.39 156.767 220.232 157.755 220.095L157.755 220.086Z" fill="#2D2B2C"/>
<path d="M151.573 210.06C153.031 209.733 154.445 209.276 155.864 208.851C156.615 208.625 157.372 208.402 158.13 208.194C158.426 208.107 158.75 208.027 159.066 207.954C159.194 207.922 159.325 207.894 159.453 207.869C159.994 207.755 159.132 207.879 159.548 207.866C161.893 207.708 161.804 204.718 159.45 204.867C158.06 204.961 156.693 205.438 155.393 205.823C153.775 206.302 152.168 206.829 150.508 207.21C148.226 207.72 149.294 210.57 151.573 210.06Z" fill="#2D2B2C"/>
<path d="M147.612 193.287C152.66 193.293 157.66 192.577 162.698 192.394C165.055 192.316 164.956 189.318 162.6 189.395C157.562 189.578 152.562 190.294 147.514 190.289C145.155 190.285 145.262 193.274 147.612 193.287Z" fill="#2D2B2C"/>
<path d="M168.528 199.185C172.013 198.869 175.567 198.954 178.986 198.191C181.265 197.675 180.197 194.825 177.918 195.338C174.842 196.039 171.583 195.908 168.436 196.195C166.105 196.406 166.188 199.396 168.534 199.193L168.528 199.185Z" fill="#2D2B2C"/>
<path d="M172.633 184.68C174.815 183.843 177.354 183.582 179.724 183.655C182.094 183.727 181.963 180.738 179.626 180.656C176.582 180.56 173.55 181.067 170.704 182.149C170.511 182.226 170.339 182.346 170.2 182.5C170.062 182.655 169.96 182.838 169.904 183.038C169.847 183.238 169.837 183.448 169.874 183.652C169.911 183.856 169.995 184.049 170.118 184.216C170.691 184.965 171.727 185.018 172.633 184.668L172.633 184.68Z" fill="#2D2B2C"/>
<path d="M148.172 180.646C151.271 180.094 153.903 178.189 157.108 178.015C159.456 177.884 159.364 174.894 157.009 175.016C153.383 175.213 150.573 177.166 147.104 177.787C144.798 178.199 145.877 181.048 148.172 180.637L148.172 180.646Z" fill="#2D2B2C"/>
<path d="M176.641 171.541C180.988 170.375 185.56 170.048 189.975 169.108C192.264 168.625 191.19 165.766 188.907 166.258C184.496 167.189 179.921 167.525 175.577 168.688C173.334 169.29 174.389 172.144 176.641 171.541Z" fill="#2D2B2C"/>
<path d="M195.845 184.523C199.329 184.199 202.793 183.716 206.305 183.58C208.658 183.503 208.563 180.504 206.206 180.581C202.701 180.714 199.237 181.197 195.747 181.524C193.416 181.742 193.496 184.732 195.845 184.523Z" fill="#2D2B2C"/>
<path d="M175.97 210.51C179.061 210.604 182.145 210.698 185.238 210.606C187.595 210.529 187.497 207.548 185.14 207.607C182.047 207.709 178.962 207.606 175.872 207.512C173.517 207.442 173.633 210.431 175.97 210.51Z" fill="#2D2B2C"/>
<path d="M171.911 227.946C175.137 228.273 178.243 229.101 181.47 229.434C183.782 229.658 184.679 226.756 182.345 226.52C179.119 226.194 176.013 225.365 172.789 225.032C170.474 224.808 169.58 227.71 171.911 227.946Z" fill="#2D2B2C"/>
<path d="M186.809 221.34C190.545 221.014 194.281 220.693 197.987 220.175C198.971 220.038 199.793 219.516 199.764 218.616C199.74 217.882 198.876 217.042 197.888 217.177C194.183 217.694 190.447 218.021 186.711 218.342C184.377 218.544 184.46 221.537 186.809 221.34Z" fill="#2D2B2C"/>
<path d="M207.945 226.42C212.374 226.101 216.798 226.4 221.067 225.137C223.285 224.485 222.235 221.629 220.002 222.287C216.054 223.452 211.938 223.134 207.847 223.43C205.506 223.6 205.592 226.59 207.945 226.429L207.945 226.42Z" fill="#2D2B2C"/>
<path d="M201.122 211.682C204.974 211.52 208.683 210.63 212.265 209.468C214.448 208.757 213.404 205.9 211.198 206.618C207.918 207.683 204.556 208.544 201.024 208.692C198.672 208.791 198.766 211.768 201.123 211.691L201.122 211.682Z" fill="#2D2B2C"/>
<path d="M189.299 200.645C192.912 199.956 196.559 199.455 200.223 199.143C202.557 198.934 202.474 195.944 200.125 196.144C196.136 196.487 192.167 197.035 188.235 197.786C185.935 198.233 187.012 201.08 189.299 200.636L189.299 200.645Z" fill="#2D2B2C"/>
<path d="M206.312 191.508C209.522 190.487 213.766 190.303 217.031 191.156C219.272 191.746 220.126 188.825 217.91 188.243C214.107 187.245 208.991 187.466 205.248 188.658C203.056 189.357 204.1 192.214 206.312 191.508Z" fill="#2D2B2C"/>
<path d="M216.885 201.59C219.977 201.488 223.177 200.987 226.16 201.832C227.098 202.101 228.153 201.445 228.371 200.712C228.643 199.856 227.973 199.182 227.036 198.915C223.744 197.988 220.196 198.473 216.787 198.6C214.43 198.677 214.528 201.676 216.885 201.599L216.885 201.59Z" fill="#2D2B2C"/>
<path d="M222.206 215.179C224.92 214.862 227.508 214.084 230.203 213.716C231.188 213.582 232.013 213.057 231.983 212.157C231.959 211.419 231.092 210.589 230.105 210.718C227.419 211.079 224.813 211.861 222.108 212.18C221.119 212.294 220.301 212.84 220.331 213.74C220.355 214.492 221.218 215.29 222.206 215.179Z" fill="#2D2B2C"/>
<path d="M228.423 226.346C230.426 226.281 232.546 226.31 234.505 225.895C236.791 225.412 235.72 222.553 233.437 223.045C233.065 223.123 232.057 223.195 231.399 223.232C230.376 223.292 229.352 223.326 228.325 223.36C225.969 223.437 226.067 226.435 228.423 226.358L228.423 226.346Z" fill="#2D2B2C"/>
<path d="M223.432 187.206C225.294 186.22 227.453 185.783 229.51 185.163C231.72 184.49 230.671 181.64 228.445 182.31C226.086 183.024 223.639 183.557 221.503 184.684C219.512 185.737 221.434 188.259 223.432 187.206Z" fill="#2D2B2C"/>
<path d="M211.697 175.196C211.87 175.058 211.353 175.378 211.795 175.162C211.97 175.088 211.955 175.088 211.753 175.164C211.907 175.105 212.067 175.054 212.225 175.007C212.817 174.83 213.419 174.686 214.027 174.576C215.521 174.297 217.028 174.094 218.542 173.969C220.137 173.817 221.747 173.729 223.353 173.706C224.578 173.69 225.2 173.645 226.213 173.912C228.448 174.512 229.299 171.59 227.089 170.996C225.894 170.678 224.502 170.714 223.255 170.722C221.457 170.736 219.663 170.864 217.87 171.04C216.068 171.204 214.276 171.463 212.501 171.816C211.274 172.07 209.958 172.419 209.032 173.164C207.335 174.528 209.994 176.551 211.682 175.178L211.697 175.196Z" fill="#2D2B2C"/>
<path d="M225.527 167.34C226.893 167.093 228.273 166.931 229.659 166.856C232.012 166.758 231.917 163.78 229.561 163.857C227.85 163.956 226.147 164.163 224.462 164.475C224.253 164.507 224.053 164.583 223.876 164.698C223.699 164.813 223.548 164.964 223.433 165.142C223.318 165.319 223.242 165.519 223.21 165.728C223.178 165.937 223.19 166.151 223.246 166.355C223.574 167.193 224.551 167.492 225.526 167.328L225.527 167.34Z" fill="#2D2B2C"/>
<path d="M194.865 174.742C196.114 173.524 198.156 173.022 199.779 172.221C201.808 171.221 199.882 168.699 197.85 169.7C195.927 170.663 193.705 171.264 192.215 172.712C190.725 174.16 193.337 176.233 194.865 174.742Z" fill="#2D2B2C"/>
<path d="M154.955 171.898C157.889 171.772 160.767 171.149 163.712 171.215C166.07 171.264 165.957 168.274 163.614 168.216C160.668 168.151 157.79 168.773 154.857 168.902C152.505 169.004 152.599 171.978 154.956 171.901L154.955 171.898Z" fill="#2D2B2C"/>
<g opacity="0.26">
<path opacity="0.26" d="M118.644 209.036C121.394 214.826 125.737 217.106 127.619 215.09C129.501 213.075 123.45 210.25 122.46 206.47C121.531 202.919 120.982 197.14 119.218 196.808C116.274 196.253 115.676 202.784 118.644 209.036Z" fill="#F08641"/>
<path opacity="0.26" d="M118.172 245.287C119.37 246.247 120.906 244.654 121.84 243.516C122.621 242.569 123.607 241.098 122.777 240.303C121.948 239.508 120.699 240.905 119.785 241.641C118.871 242.376 117.196 244.502 118.172 245.287Z" fill="#F08641"/>
<path opacity="0.26" d="M94.8204 220.881C95.3975 222.303 97.5134 221.658 98.8835 221.12C100.026 220.672 101.603 219.869 101.264 218.77C100.925 217.67 99.1504 218.29 97.9997 218.481C96.8491 218.671 94.3477 219.72 94.8204 220.881Z" fill="#F08641"/>
<path opacity="0.26" d="M92.8828 186.189C92.0039 187.446 93.6928 188.864 94.887 189.726C95.8816 190.444 97.4124 191.333 98.1509 190.453C98.8894 189.574 97.4161 188.427 96.6201 187.55C95.824 186.672 93.5985 185.163 92.8828 186.189Z" fill="#F08641"/>
<path opacity="0.26" d="M113.115 159.394C111.902 160.334 113.087 162.202 113.971 163.38C114.707 164.361 115.901 165.667 116.87 165.047C117.839 164.427 116.772 162.895 116.276 161.818C115.779 160.742 114.106 158.626 113.115 159.394Z" fill="#F08641"/>
</g>
</g>
<g clip-path="url(#clip2_575_69)">
<path d="M16.5279 93.6544C16.5279 93.6544 6.82521 100.141 7.74907 102.245C8.89188 104.853 20.0902 99.9236 20.0902 99.9236L16.5279 93.6544Z" fill="#2D2B2C"/>
<path d="M35.994 120.536C35.994 120.536 29.8296 130.445 31.5392 131.983C33.6553 133.886 41.825 124.775 41.825 124.775L35.994 120.536Z" fill="#2D2B2C"/>
<path d="M110.217 107.393C110.217 107.393 117.714 116.338 116.239 118.098C114.414 120.267 105.043 112.413 105.043 112.413L110.217 107.393Z" fill="#2D2B2C"/>
<path d="M84.0001 127.745C84.0001 127.745 87.1406 138.983 85.0708 139.963C82.4898 141.197 77.2165 130.152 77.2165 130.152L84.0001 127.745Z" fill="#2D2B2C"/>
<path d="M14.0529 92.0177C16.3452 110.672 33.917 105.889 33.917 105.889C33.917 105.889 27.0786 122.348 39.5692 126.961C49.6101 130.668 58.1718 124.608 59.9146 122.515C60.8283 124.83 68.6673 133.993 79.5574 131.98C92.8988 129.515 89.6978 114.312 89.6978 114.312C89.6978 114.312 105.15 123.939 112.697 106.722C118.754 92.9104 97.8299 87.7343 97.9646 81.1331C98.0992 74.5318 119.73 -8.48898 119.73 -8.48898L40.3847 -20.3669C40.3847 -20.3669 37.2861 65.3737 35.5237 71.7345C33.7613 78.0954 12.2152 77.0462 14.0529 92.0177Z" fill="#FDBF12"/>
<path d="M62.5936 101.801C74.2621 103.711 86.4683 96.5658 81.3339 89.4177C76.1996 82.2697 72.9079 78.9437 66.0885 77.8288C59.6385 76.7728 55.6758 80.4889 49.545 83.27C43.4142 86.0512 49.3902 99.6332 62.5936 101.801Z" fill="#2D2B2C"/>
<path d="M98.0995 107.532C100.916 109.994 103.819 110.02 105.469 107.99C107.499 105.493 105.603 102.515 102.799 100.359C99.996 98.204 96.9425 98.016 95.57 99.7569C94.1976 101.498 95.2826 105.073 98.0995 107.532Z" fill="#2D2B2C"/>
<path d="M72.7332 113.378C70.7827 114.413 70.302 118.116 71.87 121.511C73.4379 124.907 76.0795 126.114 78.4117 124.934C81.2816 123.482 80.7539 119.982 79.0868 116.875C77.4196 113.768 74.6951 112.348 72.7332 113.378Z" fill="#2D2B2C"/>
<path d="M22.2143 95.136C23.3711 97.4832 26.2083 98.0888 29.4997 96.3317C32.791 94.5747 34.6451 91.3201 33.6958 89.3147C32.7465 87.3094 29.7138 86.8103 26.5141 88.2899C23.3145 89.7695 20.7925 92.246 22.2143 95.136Z" fill="#2D2B2C"/>
<path d="M43.4978 119.754C45.5093 121.426 48.3539 120.834 50.6363 117.872C52.9187 114.911 53.2893 111.197 51.6063 109.754C49.9232 108.311 46.9473 109.093 44.6307 111.748C42.314 114.403 41.0221 117.697 43.4978 119.754Z" fill="#2D2B2C"/>
<path d="M86.4862 41.5573C77.6771 42.8215 78.0966 56.6028 81.239 62.2028C84.1575 67.4254 93.1248 71.35 100.036 70.3733C101.763 62.6856 104.421 51.7548 107.238 40.459C104.319 41.9613 101.329 43.587 98.2007 43.9775C93.993 44.5154 90.3245 41.0058 86.4862 41.5573Z" fill="#2D2B2C"/>
<path d="M37.7732 40.806C46.2067 41.7247 53.2669 40.8949 61.0733 35.7135C69.168 30.3415 76.9127 25.1698 85.7361 21.043C92.2645 17.9985 95.4226 14.8562 96.5761 7.79448C97.4966 2.12613 98.2374 -5.23262 97.153 -11.8593L40.38 -20.3554C40.38 -20.3554 39.133 13.9742 37.7732 40.806Z" fill="#2D2B2C"/>
<g opacity="0.33">
<path opacity="0.33" d="M71.0894 99.4536C76.9906 97.9516 79.9326 94.3062 78.3855 92.1901C76.8383 90.074 73.1034 95.1913 69.3996 95.4167C65.9208 95.6303 60.4348 95.0814 59.7989 96.6649C58.7391 99.3112 64.7171 101.07 71.0894 99.4536Z" fill="#DEB180"/>
<path opacity="0.33" d="M104.78 106.563C105.896 105.627 104.693 103.898 103.807 102.81C103.068 101.907 101.879 100.718 100.986 101.343C100.093 101.968 101.164 103.383 101.678 104.382C102.193 105.381 103.871 107.331 104.78 106.563Z" fill="#DEB180"/>
<path opacity="0.33" d="M77.7381 123.865C79.1666 123.59 78.9629 121.495 78.7078 120.117C78.5002 118.969 78.0422 117.35 76.9521 117.466C75.8619 117.582 76.1179 119.334 76.0808 120.461C76.0437 121.588 76.5663 124.094 77.7381 123.865Z" fill="#DEB180"/>
<path opacity="0.33" d="M45.0523 119.287C46.062 120.329 47.7054 119.041 48.7295 118.071C49.5786 117.28 50.6912 116.011 50.0063 115.158C49.3213 114.305 47.984 115.471 47.0185 116.051C46.0531 116.63 44.2259 118.43 45.0523 119.287Z" fill="#DEB180"/>
<path opacity="0.33" d="M23.8103 95.4748C24.4629 96.7701 26.4237 96.017 27.6829 95.4079C28.7353 94.9007 30.1721 94.0257 29.7718 93.0089C29.3715 91.9921 27.7481 92.7061 26.6561 92.9695C25.5642 93.2329 23.283 94.3926 23.8103 95.4748Z" fill="#DEB180"/>
</g>
</g>
</g>
<defs>
<filter id="filter0_d_575_69" x="0" y="-23.835" width="273.034" height="292.231" filterUnits="userSpaceOnUse" color-interpolation-filters="sRGB">
<feFlood flood-opacity="0" result="BackgroundImageFix"/>
<feColorMatrix in="SourceAlpha" type="matrix" values="0 0 0 0 0 0 0 0 0 0 0 0 0 0 0 0 0 0 127 0" result="hardAlpha"/>
<feOffset dy="4"/>
<feGaussianBlur stdDeviation="2"/>
<feComposite in2="hardAlpha" operator="out"/>
<feColorMatrix type="matrix" values="0 0 0 0 0 0 0 0 0 0 0 0 0 0 0 0 0 0 0.25 0"/>
<feBlend mode="normal" in2="BackgroundImageFix" result="effect1_dropShadow_575_69"/>
<feBlend mode="normal" in="SourceGraphic" in2="effect1_dropShadow_575_69" result="shape"/>
</filter>
<clipPath id="clip0_575_69">
<rect width="83.2237" height="148.289" fill="white" transform="translate(167.897 141.374) rotate(-136.998)"/>
</clipPath>
<clipPath id="clip1_575_69">
<rect width="115.665" height="160.867" fill="white" transform="translate(79.3125 260.396) rotate(-91.877)"/>
</clipPath>
<clipPath id="clip2_575_69">
<rect width="109.868" height="153.109" fill="white" transform="translate(112.885 143.892) rotate(-172.328)"/>
</clipPath>
</defs>
</svg>
